<svg width="32" height="32" viewBox="0 0 32 32" fill="none" xmlns="http://www.w3.org/2000/svg">
<path d="M8.31733 4C9.60666 4 10.6507 5.04533 10.6507 6.33333V25.6667C10.6507 25.9731 10.5903 26.2765 10.4731 26.5596C10.3558 26.8427 10.1839 27.0999 9.96725 27.3166C9.75058 27.5333 9.49335 27.7051 9.21026 27.8224C8.92717 27.9396 8.62375 28 8.31733 28H4.984C4.36516 28 3.77167 27.7542 3.33408 27.3166C2.8965 26.879 2.65067 26.2855 2.65067 25.6667V6.33333C2.65105 5.74777 2.87159 5.18375 3.26851 4.75323C3.66544 4.32272 4.20972 4.05718 4.79333 4.00933L4.984 4H8.31733V4ZM27.0187 4C28.308 4 29.352 5.04533 29.352 6.33333V25.6667C29.352 26.2855 29.1062 26.879 28.6686 27.3166C28.231 27.7542 27.6375 28 27.0187 28H23.6853C23.0665 28 22.473 27.7542 22.0354 27.3166C21.5978 26.879 21.352 26.2855 21.352 25.6667V6.33333C21.352 5.04533 22.3973 4 23.6853 4H27.0187ZM17.6507 4C18.94 4 19.984 5.04533 19.984 6.33333V25.6667C19.984 26.2855 19.7382 26.879 19.3006 27.3166C18.863 27.7542 18.2695 28 17.6507 28H14.3173C13.6985 28 13.105 27.7542 12.6674 27.3166C12.2298 26.879 11.984 26.2855 11.984 25.6667V6.33333C11.984 5.04533 13.0293 4 14.3173 4H17.6507ZM8.31733 6H4.984L4.908 6.00933C4.83466 6.02651 4.76929 6.06802 4.72256 6.1271C4.67583 6.18618 4.65049 6.25934 4.65067 6.33467V25.668C4.65067 25.852 4.8 26.0013 4.984 26.0013H8.31733C8.40574 26.0013 8.49052 25.9662 8.55303 25.9037C8.61555 25.8412 8.65066 25.7564 8.65066 25.668V6.33333C8.65066 6.24493 8.61555 6.16014 8.55303 6.09763C8.49052 6.03512 8.40574 6 8.31733 6ZM27.0187 6H23.6853C23.5969 6 23.5121 6.03512 23.4496 6.09763C23.3871 6.16014 23.352 6.24493 23.352 6.33333V25.6667C23.352 25.852 23.5013 26 23.6853 26H27.0187C27.1071 26 27.1919 25.9649 27.2544 25.9024C27.3169 25.8399 27.352 25.7551 27.352 25.6667V6.33333C27.352 6.24493 27.3169 6.16014 27.2544 6.09763C27.1919 6.03512 27.1071 6 27.0187 6ZM17.6507 6H14.3173C14.2289 6 14.1441 6.03512 14.0816 6.09763C14.0191 6.16014 13.984 6.24493 13.984 6.33333V25.6667C13.984 25.8507 14.1333 26 14.3173 26H17.6507C17.7391 26 17.8239 25.9649 17.8864 25.9024C17.9489 25.8399 17.984 25.7551 17.984 25.6667V6.33333C17.984 6.24493 17.9489 6.16014 17.8864 6.09763C17.8239 6.03512 17.7391 6 17.6507 6Z" fill="white"/>
</svg>
