<svg width="32" height="32" viewBox="0 0 32 32" fill="none" xmlns="http://www.w3.org/2000/svg">
<path d="M4.00001 17.3333H5.33334V26.6667C5.33334 28.1373 6.52934 29.3333 8.00001 29.3333H24C25.4707 29.3333 26.6667 28.1373 26.6667 26.6667V17.3333H28C28.2637 17.3333 28.5214 17.2551 28.7406 17.1085C28.9598 16.962 29.1307 16.7538 29.2316 16.5102C29.3325 16.2666 29.3589 15.9986 29.3075 15.74C29.256 15.4814 29.1291 15.2438 28.9427 15.0573L16.9427 3.05735C16.819 2.93342 16.672 2.8351 16.5103 2.76802C16.3485 2.70094 16.1751 2.66641 16 2.66641C15.8249 2.66641 15.6515 2.70094 15.4898 2.76802C15.328 2.8351 15.1811 2.93342 15.0573 3.05735L3.05734 15.0573C2.87093 15.2438 2.74399 15.4814 2.69257 15.74C2.64114 15.9986 2.66755 16.2666 2.76844 16.5102C2.86933 16.7538 3.04019 16.962 3.2594 17.1085C3.47861 17.2551 3.73634 17.3333 4.00001 17.3333ZM13.3333 26.6667V20H18.6667V26.6667H13.3333ZM16 5.88535L24 13.8853V20L24.0013 26.6667H21.3333V20C21.3333 18.5293 20.1373 17.3333 18.6667 17.3333H13.3333C11.8627 17.3333 10.6667 18.5293 10.6667 20V26.6667H8.00001V13.8853L16 5.88535Z" fill="white" fill-opacity="0.5"/>
</svg>
